<svg xmlns="http://www.w3.org/2000/svg" viewBox="0 0 512 512" width="64" height="64">
  <rect width="512" height="512" rx="96" fill="#1f2937"/>
  <g fill="#f3f4f6">
    <path d="M196 120c-10 8-18 22-22 40-22 10-40 30-48 58-4 14-2 24 6 30 8 6 18 4 26-4 8-9 14-12 20-10 5 2 6 8 2 16-12 24-18 46-18 70 0 16 8 26 24 30h132c10-2 16-10 16-22 0-44-10-86-32-126-16-30-38-54-66-72-12-8-24-12-40-8z"/>
    <rect x="150" y="372" width="212" height="22" rx="6"/>
    <rect x="134" y="402" width="244" height="28" rx="8"/>
  </g>
</svg>
